
<svg width="256" height="256" viewBox="0 0 256 256" fill="none" xmlns="http://www.w3.org/2000/svg">
<g clip-path="url(#clip0_6589_20309)">
<rect width="256" height="256" rx="128" fill="black"/>
<circle cx="191.786" cy="196.052" r="23.9843" transform="rotate(-45 191.786 196.052)" fill="#00B4FF"/>
<circle cx="27.7344" cy="130.133" r="32" transform="rotate(90 27.7344 130.133)" fill="#FFC800"/>
<circle cx="128.001" cy="42.6666" r="21.3333" fill="#FFC800"/>
<circle cx="75.332" cy="246.003" r="17.0667" transform="rotate(45 75.332 246.003)" fill="#00B4FF"/>
<circle cx="88.1328" cy="7.06926" r="17.0667" transform="rotate(45 88.1328 7.06926)" fill="#00B4FF"/>
<path d="M104.514 115.245H85.332V110.576H87.6677V98.5358H85.332V93.8667H104.514V100.993H99.7188V98.5358H93.8171V102.099H99.3505V106.768H93.8171V110.577H99.7188V108.12H104.514V115.245ZM116.862 115.245H106.288V110.576H108.869V98.5358H106.288V93.8667H117.108V98.5358H115.019V102.221H117.232C120.06 102.221 121.781 100.87 121.781 98.5358H119.936V93.8667H130.142V98.5358H127.559C127.559 101.731 125.346 104.433 123.132 105.662C123.747 108.98 125.644 110.577 129.825 110.332L134.498 98.5373H132.899V93.8667H144.949L151.343 110.576H153.556V115.245H142.735V110.576H144.456L143.964 108.978H136.832L136.34 110.576H138.307V115.245H134.06C126.682 115.245 125.716 115.245 123.01 114.139C120.428 113.033 118.461 110.33 117.477 106.89H115.017V110.576H116.862V115.245ZM138.434 104.309H142.246L140.279 99.1482L138.434 104.309ZM116.918 140.408H106.288V135.677H108.801V123.607H106.288V119.068H119.362C125.08 119.068 127.963 122.188 127.963 126.153C127.963 128.47 126.706 131.042 124.097 132.491C124.482 134.808 126.496 135.678 128.991 135.678H132.984V123.607H129.601V119.068H142.454V123.607H139.07V135.677H142.454V140.408H128.725C122.501 140.408 119.552 137.993 118.105 133.454H115.081V135.675H116.916L116.918 140.408ZM115.081 128.821H117.961C119.89 128.821 121.478 128.14 121.478 126.213C121.478 124.172 119.89 123.606 117.961 123.606H115.081V128.821ZM104.514 133.321H99.7188V135.779H93.8171V131.97H99.3505V127.3H93.8171V123.737H99.7188V126.195H104.514V119.068H85.332V123.737H87.6677V135.777H85.332V140.446H104.514V133.321ZM150.008 93.8667V100.87H154.557V98.5358H157.139V110.576H154.926V115.245H165.746V110.576H163.411V98.5358H165.993V100.87H170.665V93.8667H150.008ZM159.45 123.607H162.052V131.32L153.443 119.068H144.255V123.606H146.775V135.675H144.255V140.406H155.368V135.675H152.864V128.252L161.28 140.406H168.141V123.607H170.469V119.07H159.452L159.45 123.607ZM105.045 159.14C105.045 162.326 102.717 165.513 98.1927 165.513H85.332V160.878H87.5547V148.809H85.332V144.078H96.682C101.061 144.078 103.209 146.877 103.209 149.871C103.209 151.223 102.726 152.575 101.565 153.83C104.079 154.989 105.045 157.016 105.045 159.14ZM93.8356 152.477H95.4794C96.8322 152.477 97.5086 151.608 97.5086 150.643C97.5086 149.678 96.8322 148.809 95.4794 148.809H93.8356V152.477ZM98.9573 158.851C98.9573 157.788 98.0875 156.726 96.7347 156.726H93.8356V160.878H96.6387C98.0875 160.878 98.9573 159.816 98.9573 158.851ZM160.055 153.102H170.37V161.09C168.919 163.793 165.635 165.9 160.707 165.9C157.808 165.9 155.489 165.127 154.234 164.163C149.578 166.992 141.454 166.404 138.578 158.561H135.812V160.878H137.71V165.513H127.079V160.878H129.724V148.809H125.918V156.823C125.918 162.808 121.667 166.092 116.158 166.092C111.327 166.092 106.399 163.196 106.399 156.823V148.809H104.37V144.078H115.194V148.809H112.874V157.114C112.874 159.526 114.711 160.878 116.449 160.878C118.189 160.878 119.831 159.624 119.831 157.114V148.809H117.028V144.078H139.833C145.551 144.078 148.434 147.196 148.434 151.163C148.434 153.49 147.167 156.074 144.532 157.519C145.628 160.73 148.959 161.362 150.559 159.817C149.787 158.272 149.496 156.534 149.496 154.795C149.496 149.067 153.059 143.693 160.414 143.693C164.663 143.693 167.225 144.902 169.266 146.606V151.614H163.855L163.832 149.381C162.998 148.864 162.024 148.626 160.801 148.626C157.599 148.626 155.678 150.903 155.678 154.701C155.678 158.176 157.709 160.765 160.801 160.861C162.445 160.861 163.71 160.51 164.956 159.432V157.643H160.052L160.055 153.102ZM142.135 151.416C142.135 149.375 140.547 148.809 138.618 148.809H135.81V154.024H138.618C140.547 154.024 142.135 153.342 142.135 151.416Z" fill="white"/>
<rect x="38.3984" y="34.1333" width="51.2" height="51.2" fill="#00B400"/>
<rect x="98.1328" y="196.267" width="38.4" height="38.4" fill="#00B400"/>
<path d="M10.6633 213.064L52.5588 216.987L64.3156 188.797L88.7278 191.953L90.9967 177.043L54.8284 172.365L43.0769 200.552L12.7855 196.639L10.6633 213.064Z" fill="#00B4FA"/>
<rect x="145.066" y="234.968" width="34.1333" height="34.1333" transform="rotate(-15 145.066 234.968)" fill="#FFC800"/>
<rect x="153.602" y="-3.96558" width="34.1333" height="34.1333" transform="rotate(-15 153.602 -3.96558)" fill="#00B4FF"/>
<circle cx="204.367" cy="80.6381" r="29.8667" transform="rotate(-135 204.367 80.6381)" fill="#00B400"/>
<path d="M204.801 165.543C216.007 165.543 227.103 163.336 237.456 159.047C247.81 154.759 257.217 148.473 265.141 140.549C273.064 132.625 279.35 123.218 283.638 112.865C287.927 102.512 290.134 91.4156 290.134 80.2095L255.997 80.2095C255.997 86.9327 254.673 93.59 252.1 99.8014C249.527 106.013 245.756 111.657 241.002 116.411C236.248 121.165 230.604 124.936 224.393 127.509C218.181 130.081 211.524 131.406 204.801 131.406L204.801 165.543Z" fill="#FFC800"/>
</g>
<defs>
<clipPath id="clip0_6589_20309">
<rect width="256" height="256" rx="128" fill="white"/>
</clipPath>
</defs>
</svg>
